# Blender v2.79 (sub 0) OBJ File: ''
# www.blender.org
mtllib house.mtl
o Cube
v 1.000000 -1.000000 -1.000000
v 1.000000 -1.000000 1.000000
v -1.000000 -1.000000 1.000000
v -1.000000 -1.000000 -1.000000
v 1.000000 0.174117 -0.999999
v 0.999999 0.174117 1.000001
v -1.000000 0.174117 1.000000
v -1.000000 0.174117 -1.000000
v 1.000000 1.000000 0.000001
v -1.000000 1.000000 -0.000000
v 0.050586 0.593878 -0.562881
vn 0.0000 -1.0000 0.0000
vn 1.0000 0.0000 0.0000
vn -0.0000 -0.0000 1.0000
vn -1.0000 -0.0000 -0.0000
vn 0.0000 0.0000 -1.0000
usemtl Material
s off
f 1//1 2//1 3//1 4//1
f 1//2 5//2 9//2 6//2 2//2
f 2//3 6//3 7//3 3//3
f 3//4 7//4 10//4 8//4 4//4
f 5//5 1//5 4//5 8//5
